<mxfile host="65bd71144e">
    <diagram id="HIP3nbAZw_EuaXWnEj3U" name="Page-1">
        <mxGraphModel dx="686" dy="391" grid="1" gridSize="10" guides="1" tooltips="1" connect="1" arrows="1" fold="1" page="1" pageScale="1" pageWidth="850" pageHeight="1100" math="0" shadow="0">
            <root>
                <mxCell id="0"/>
                <mxCell id="1" parent="0"/>
                <mxCell id="7" value="http://ics2o.mths.ca" style="swimlane;whiteSpace=wrap;html=1;" parent="1" vertex="1">
                    <mxGeometry x="40" y="40" width="760" height="480" as="geometry"/>
                </mxCell>
                <mxCell id="8" value="http://ics2o.mths.ca" style="swimlane;whiteSpace=wrap;html=1;" parent="1" vertex="1">
                    <mxGeometry x="40" y="40" width="760" height="480" as="geometry"/>
                </mxCell>
                <mxCell id="9" value="&lt;font style=&quot;font-size: 21px;&quot;&gt;Please enter the three angles of a triangle&lt;/font&gt;" style="text;html=1;align=center;verticalAlign=middle;resizable=0;points=[];autosize=1;strokeColor=none;fillColor=none;" parent="8" vertex="1">
                    <mxGeometry x="50" y="90" width="410" height="40" as="geometry"/>
                </mxCell>
                <mxCell id="13" value="Angle A:" style="text;html=1;align=center;verticalAlign=middle;resizable=0;points=[];autosize=1;strokeColor=none;fillColor=none;" parent="8" vertex="1">
                    <mxGeometry x="50" y="140" width="70" height="30" as="geometry"/>
                </mxCell>
                <mxCell id="15" value="Angle&amp;nbsp;B:" style="text;html=1;align=center;verticalAlign=middle;resizable=0;points=[];autosize=1;strokeColor=none;fillColor=none;" parent="8" vertex="1">
                    <mxGeometry x="50" y="170" width="70" height="30" as="geometry"/>
                </mxCell>
                <mxCell id="14" value="Angle&amp;nbsp;C:" style="text;html=1;align=center;verticalAlign=middle;resizable=0;points=[];autosize=1;strokeColor=none;fillColor=none;" parent="8" vertex="1">
                    <mxGeometry x="50" y="200" width="70" height="30" as="geometry"/>
                </mxCell>
                <mxCell id="10" value="" style="rounded=1;whiteSpace=wrap;html=1;" parent="8" vertex="1">
                    <mxGeometry x="130" y="145" width="70" height="20" as="geometry"/>
                </mxCell>
                <mxCell id="12" value="" style="rounded=1;whiteSpace=wrap;html=1;" parent="8" vertex="1">
                    <mxGeometry x="130" y="175" width="70" height="20" as="geometry"/>
                </mxCell>
                <mxCell id="11" value="" style="rounded=1;whiteSpace=wrap;html=1;" parent="8" vertex="1">
                    <mxGeometry x="130" y="205" width="70" height="20" as="geometry"/>
                </mxCell>
                <mxCell id="17" value="&lt;font style=&quot;font-size: 21px;&quot;&gt;Title&lt;/font&gt;" style="text;html=1;align=center;verticalAlign=middle;resizable=0;points=[];autosize=1;strokeColor=none;fillColor=none;" parent="8" vertex="1">
                    <mxGeometry x="350" y="40" width="60" height="40" as="geometry"/>
                </mxCell>
                <mxCell id="16" value="Answer:" style="text;html=1;strokeColor=none;fillColor=none;align=center;verticalAlign=middle;whiteSpace=wrap;rounded=0;fontSize=15;" parent="8" vertex="1">
                    <mxGeometry x="55" y="270" width="60" height="30" as="geometry"/>
                </mxCell>
                <mxCell id="18" value="" style="shape=image;verticalLabelPosition=bottom;labelBackgroundColor=default;verticalAlign=top;aspect=fixed;imageAspect=0;image=https://olivia-boyce-richardson-miniature-pv59jjvjxqw37j64-5500.preview.app.github.dev/triangle.png;" vertex="1" parent="8">
                    <mxGeometry x="370" y="150" width="340" height="231" as="geometry"/>
                </mxCell>
            </root>
        </mxGraphModel>
    </diagram>
</mxfile>